<mxfile host="65bd71144e">
    <diagram id="C5RBs43oDa-KdzZeNtuy" name="Page-1">
        <mxGraphModel dx="612" dy="364" grid="0" gridSize="10" guides="1" tooltips="1" connect="1" arrows="1" fold="1" page="1" pageScale="1" pageWidth="2339" pageHeight="3300" background="none" math="0" shadow="0">
            <root>
                <mxCell id="WIyWlLk6GJQsqaUBKTNV-0"/>
                <mxCell id="WIyWlLk6GJQsqaUBKTNV-1" parent="WIyWlLk6GJQsqaUBKTNV-0"/>
                <mxCell id="qqY5NxQBTnDj3dxJm5_0-12" style="edgeStyle=orthogonalEdgeStyle;orthogonalLoop=1;jettySize=auto;html=1;rounded=0;endArrow=none;endFill=0;" parent="WIyWlLk6GJQsqaUBKTNV-1" source="qqY5NxQBTnDj3dxJm5_0-4" edge="1">
                    <mxGeometry relative="1" as="geometry">
                        <mxPoint x="1131" y="274" as="targetPoint"/>
                    </mxGeometry>
                </mxCell>
                <mxCell id="qqY5NxQBTnDj3dxJm5_0-4" value="Être vivant" style="swimlane;fontStyle=1;align=center;verticalAlign=top;childLayout=stackLayout;horizontal=1;startSize=26;horizontalStack=0;resizeParent=1;resizeParentMax=0;resizeLast=0;collapsible=1;marginBottom=0;rounded=0;" parent="WIyWlLk6GJQsqaUBKTNV-1" vertex="1">
                    <mxGeometry x="605" y="314" width="321" height="202" as="geometry"/>
                </mxCell>
                <mxCell id="qqY5NxQBTnDj3dxJm5_0-5" value="vie&#10;énergie&#10;sexe&#10;" style="text;strokeColor=none;fillColor=none;align=left;verticalAlign=top;spacingLeft=4;spacingRight=4;overflow=hidden;rotatable=0;points=[[0,0.5],[1,0.5]];portConstraint=eastwest;rounded=0;" parent="qqY5NxQBTnDj3dxJm5_0-4" vertex="1">
                    <mxGeometry y="26" width="321" height="54" as="geometry"/>
                </mxCell>
                <mxCell id="qqY5NxQBTnDj3dxJm5_0-6" value="" style="line;strokeWidth=1;fillColor=none;align=left;verticalAlign=middle;spacingTop=-1;spacingLeft=3;spacingRight=3;rotatable=0;labelPosition=right;points=[];portConstraint=eastwest;rounded=0;" parent="qqY5NxQBTnDj3dxJm5_0-4" vertex="1">
                    <mxGeometry y="80" width="321" height="8" as="geometry"/>
                </mxCell>
                <mxCell id="qqY5NxQBTnDj3dxJm5_0-7" value="reproduire()&#10;inZone(rayon,position)&#10;manger(proie)&#10;energieUpdate(index)&#10;accouchement(mère,enegie,vie,rayonVision,rayonContact)&#10;digerer()&#10;" style="text;strokeColor=none;fillColor=none;align=left;verticalAlign=top;spacingLeft=4;spacingRight=4;overflow=hidden;rotatable=0;points=[[0,0.5],[1,0.5]];portConstraint=eastwest;rounded=0;" parent="qqY5NxQBTnDj3dxJm5_0-4" vertex="1">
                    <mxGeometry y="88" width="321" height="114" as="geometry"/>
                </mxCell>
                <mxCell id="qqY5NxQBTnDj3dxJm5_0-18" style="edgeStyle=orthogonalEdgeStyle;orthogonalLoop=1;jettySize=auto;html=1;rounded=0;endArrow=none;endFill=0;" parent="WIyWlLk6GJQsqaUBKTNV-1" source="qqY5NxQBTnDj3dxJm5_0-14" edge="1">
                    <mxGeometry relative="1" as="geometry">
                        <mxPoint x="1131" y="273" as="targetPoint"/>
                        <Array as="points">
                            <mxPoint x="1131" y="434"/>
                            <mxPoint x="1131" y="283"/>
                        </Array>
                    </mxGeometry>
                </mxCell>
                <mxCell id="qqY5NxQBTnDj3dxJm5_0-14" value="Objet" style="swimlane;fontStyle=1;align=center;verticalAlign=top;childLayout=stackLayout;horizontal=1;startSize=26;horizontalStack=0;resizeParent=1;resizeParentMax=0;resizeLast=0;collapsible=1;marginBottom=0;rounded=0;" parent="WIyWlLk6GJQsqaUBKTNV-1" vertex="1">
                    <mxGeometry x="1400" y="390" width="160" height="87" as="geometry"/>
                </mxCell>
                <mxCell id="qqY5NxQBTnDj3dxJm5_0-15" value="énergie&#10;vie&#10;attaque" style="text;strokeColor=none;fillColor=none;align=left;verticalAlign=top;spacingLeft=4;spacingRight=4;overflow=hidden;rotatable=0;points=[[0,0.5],[1,0.5]];portConstraint=eastwest;rounded=0;" parent="qqY5NxQBTnDj3dxJm5_0-14" vertex="1">
                    <mxGeometry y="26" width="160" height="53" as="geometry"/>
                </mxCell>
                <mxCell id="qqY5NxQBTnDj3dxJm5_0-16" value="" style="line;strokeWidth=1;fillColor=none;align=left;verticalAlign=middle;spacingTop=-1;spacingLeft=3;spacingRight=3;rotatable=0;labelPosition=right;points=[];portConstraint=eastwest;rounded=0;" parent="qqY5NxQBTnDj3dxJm5_0-14" vertex="1">
                    <mxGeometry y="79" width="160" height="8" as="geometry"/>
                </mxCell>
                <mxCell id="qqY5NxQBTnDj3dxJm5_0-27" style="edgeStyle=orthogonalEdgeStyle;orthogonalLoop=1;jettySize=auto;html=1;rounded=0;endArrow=block;endFill=0;" parent="WIyWlLk6GJQsqaUBKTNV-1" source="qqY5NxQBTnDj3dxJm5_0-23" edge="1">
                    <mxGeometry relative="1" as="geometry">
                        <mxPoint x="629" y="517" as="targetPoint"/>
                        <Array as="points">
                            <mxPoint x="540" y="559"/>
                            <mxPoint x="629" y="559"/>
                        </Array>
                    </mxGeometry>
                </mxCell>
                <mxCell id="qqY5NxQBTnDj3dxJm5_0-23" value="Carnivore" style="swimlane;fontStyle=1;align=center;verticalAlign=top;childLayout=stackLayout;horizontal=1;startSize=26;horizontalStack=0;resizeParent=1;resizeParentMax=0;resizeLast=0;collapsible=1;marginBottom=0;rounded=0;" parent="WIyWlLk6GJQsqaUBKTNV-1" vertex="1">
                    <mxGeometry x="460" y="601" width="160" height="178" as="geometry"/>
                </mxCell>
                <mxCell id="qqY5NxQBTnDj3dxJm5_0-24" value="rayonContact&#10;rayonVision&#10;" style="text;strokeColor=none;fillColor=none;align=left;verticalAlign=top;spacingLeft=4;spacingRight=4;overflow=hidden;rotatable=0;points=[[0,0.5],[1,0.5]];portConstraint=eastwest;rounded=0;" parent="qqY5NxQBTnDj3dxJm5_0-23" vertex="1">
                    <mxGeometry y="26" width="160" height="52" as="geometry"/>
                </mxCell>
                <mxCell id="qqY5NxQBTnDj3dxJm5_0-25" value="" style="line;strokeWidth=1;fillColor=none;align=left;verticalAlign=middle;spacingTop=-1;spacingLeft=3;spacingRight=3;rotatable=0;labelPosition=right;points=[];portConstraint=eastwest;rounded=0;" parent="qqY5NxQBTnDj3dxJm5_0-23" vertex="1">
                    <mxGeometry y="78" width="160" height="18" as="geometry"/>
                </mxCell>
                <mxCell id="qqY5NxQBTnDj3dxJm5_0-26" value="manger(proie)&#10;reproduire()&#10;inRayonContact(cible)&#10;inRayonVisible(cible)&#10;deplacer(direction)&#10;" style="text;strokeColor=none;fillColor=none;align=left;verticalAlign=top;spacingLeft=4;spacingRight=4;overflow=hidden;rotatable=0;points=[[0,0.5],[1,0.5]];portConstraint=eastwest;rounded=0;" parent="qqY5NxQBTnDj3dxJm5_0-23" vertex="1">
                    <mxGeometry y="96" width="160" height="82" as="geometry"/>
                </mxCell>
                <mxCell id="qqY5NxQBTnDj3dxJm5_0-33" style="edgeStyle=orthogonalEdgeStyle;orthogonalLoop=1;jettySize=auto;html=1;rounded=0;endArrow=block;endFill=0;" parent="WIyWlLk6GJQsqaUBKTNV-1" source="qqY5NxQBTnDj3dxJm5_0-28" edge="1">
                    <mxGeometry relative="1" as="geometry">
                        <mxPoint x="780" y="516" as="targetPoint"/>
                        <Array as="points">
                            <mxPoint x="780" y="516"/>
                        </Array>
                    </mxGeometry>
                </mxCell>
                <mxCell id="qqY5NxQBTnDj3dxJm5_0-28" value="Herbivore" style="swimlane;fontStyle=1;align=center;verticalAlign=top;childLayout=stackLayout;horizontal=1;startSize=26;horizontalStack=0;resizeParent=1;resizeParentMax=0;resizeLast=0;collapsible=1;marginBottom=0;rounded=0;" parent="WIyWlLk6GJQsqaUBKTNV-1" vertex="1">
                    <mxGeometry x="700" y="600" width="160" height="172" as="geometry"/>
                </mxCell>
                <mxCell id="qqY5NxQBTnDj3dxJm5_0-29" value="rayonContact&#10;rayonVision&#10;&#10;&#10;" style="text;strokeColor=none;fillColor=none;align=left;verticalAlign=top;spacingLeft=4;spacingRight=4;overflow=hidden;rotatable=0;points=[[0,0.5],[1,0.5]];portConstraint=eastwest;rounded=0;" parent="qqY5NxQBTnDj3dxJm5_0-28" vertex="1">
                    <mxGeometry y="26" width="160" height="34" as="geometry"/>
                </mxCell>
                <mxCell id="qqY5NxQBTnDj3dxJm5_0-30" value="" style="line;strokeWidth=1;fillColor=none;align=left;verticalAlign=middle;spacingTop=-1;spacingLeft=3;spacingRight=3;rotatable=0;labelPosition=right;points=[];portConstraint=eastwest;rounded=0;" parent="qqY5NxQBTnDj3dxJm5_0-28" vertex="1">
                    <mxGeometry y="60" width="160" height="18" as="geometry"/>
                </mxCell>
                <mxCell id="qqY5NxQBTnDj3dxJm5_0-31" value="manger(herbe)&#10;reproduire()&#10;inRayonContact(cible)&#10;inRayonVisible(cible)&#10;deplacer(direction)&#10;&#10;&#10;" style="text;strokeColor=none;fillColor=none;align=left;verticalAlign=top;spacingLeft=4;spacingRight=4;overflow=hidden;rotatable=0;points=[[0,0.5],[1,0.5]];portConstraint=eastwest;rounded=0;" parent="qqY5NxQBTnDj3dxJm5_0-28" vertex="1">
                    <mxGeometry y="78" width="160" height="94" as="geometry"/>
                </mxCell>
                <mxCell id="qqY5NxQBTnDj3dxJm5_0-38" style="edgeStyle=orthogonalEdgeStyle;orthogonalLoop=1;jettySize=auto;html=1;rounded=0;endArrow=block;endFill=0;" parent="WIyWlLk6GJQsqaUBKTNV-1" source="qqY5NxQBTnDj3dxJm5_0-34" edge="1">
                    <mxGeometry relative="1" as="geometry">
                        <mxPoint x="887" y="516" as="targetPoint"/>
                        <Array as="points">
                            <mxPoint x="887" y="677"/>
                            <mxPoint x="887" y="516"/>
                        </Array>
                    </mxGeometry>
                </mxCell>
                <mxCell id="qqY5NxQBTnDj3dxJm5_0-34" value="Plante" style="swimlane;fontStyle=1;align=center;verticalAlign=top;childLayout=stackLayout;horizontal=1;startSize=26;horizontalStack=0;resizeParent=1;resizeParentMax=0;resizeLast=0;collapsible=1;marginBottom=0;rounded=0;" parent="WIyWlLk6GJQsqaUBKTNV-1" vertex="1">
                    <mxGeometry x="940" y="600" width="204" height="153" as="geometry"/>
                </mxCell>
                <mxCell id="qqY5NxQBTnDj3dxJm5_0-35" value="rayonRacine&#10;rayonSemis&#10;&#10;&#10;" style="text;strokeColor=none;fillColor=none;align=left;verticalAlign=top;spacingLeft=4;spacingRight=4;overflow=hidden;rotatable=0;points=[[0,0.5],[1,0.5]];portConstraint=eastwest;rounded=0;" parent="qqY5NxQBTnDj3dxJm5_0-34" vertex="1">
                    <mxGeometry y="26" width="204" height="34" as="geometry"/>
                </mxCell>
                <mxCell id="qqY5NxQBTnDj3dxJm5_0-36" value="" style="line;strokeWidth=1;fillColor=none;align=left;verticalAlign=middle;spacingTop=-1;spacingLeft=3;spacingRight=3;rotatable=0;labelPosition=right;points=[];portConstraint=eastwest;rounded=0;" parent="qqY5NxQBTnDj3dxJm5_0-34" vertex="1">
                    <mxGeometry y="60" width="204" height="18" as="geometry"/>
                </mxCell>
                <mxCell id="qqY5NxQBTnDj3dxJm5_0-37" value="manger(dechet_organique)&#10;reproduire(position_x, position_y)&#10;inRayonContact()&#10;inRayonVisible()&#10;&#10;" style="text;strokeColor=none;fillColor=none;align=left;verticalAlign=top;spacingLeft=4;spacingRight=4;overflow=hidden;rotatable=0;points=[[0,0.5],[1,0.5]];portConstraint=eastwest;rounded=0;" parent="qqY5NxQBTnDj3dxJm5_0-34" vertex="1">
                    <mxGeometry y="78" width="204" height="75" as="geometry"/>
                </mxCell>
                <mxCell id="qqY5NxQBTnDj3dxJm5_0-44" style="edgeStyle=orthogonalEdgeStyle;orthogonalLoop=1;jettySize=auto;html=1;rounded=0;endArrow=block;endFill=0;" parent="WIyWlLk6GJQsqaUBKTNV-1" source="qqY5NxQBTnDj3dxJm5_0-39" edge="1">
                    <mxGeometry relative="1" as="geometry">
                        <mxPoint x="1415" y="476" as="targetPoint"/>
                        <Array as="points">
                            <mxPoint x="1415" y="651"/>
                            <mxPoint x="1415" y="476"/>
                        </Array>
                    </mxGeometry>
                </mxCell>
                <mxCell id="qqY5NxQBTnDj3dxJm5_0-39" value="Viande" style="swimlane;fontStyle=1;align=center;verticalAlign=top;childLayout=stackLayout;horizontal=1;startSize=26;horizontalStack=0;resizeParent=1;resizeParentMax=0;resizeLast=0;collapsible=1;marginBottom=0;rounded=0;" parent="WIyWlLk6GJQsqaUBKTNV-1" vertex="1">
                    <mxGeometry x="1220" y="580" width="160" height="142" as="geometry">
                        <mxRectangle x="1220" y="580" width="70" height="26" as="alternateBounds"/>
                    </mxGeometry>
                </mxCell>
                <mxCell id="qqY5NxQBTnDj3dxJm5_0-56" value="nom&lt;br&gt;position" style="text;html=1;align=left;verticalAlign=middle;resizable=0;points=[];autosize=1;strokeColor=none;fillColor=none;rounded=0;" parent="qqY5NxQBTnDj3dxJm5_0-39" vertex="1">
                    <mxGeometry y="26" width="160" height="32" as="geometry"/>
                </mxCell>
                <mxCell id="qqY5NxQBTnDj3dxJm5_0-41" value="" style="line;strokeWidth=1;fillColor=none;align=left;verticalAlign=middle;spacingTop=-1;spacingLeft=3;spacingRight=3;rotatable=0;labelPosition=right;points=[];portConstraint=eastwest;rounded=0;" parent="qqY5NxQBTnDj3dxJm5_0-39" vertex="1">
                    <mxGeometry y="58" width="160" height="84" as="geometry"/>
                </mxCell>
                <mxCell id="qqY5NxQBTnDj3dxJm5_0-49" style="edgeStyle=orthogonalEdgeStyle;orthogonalLoop=1;jettySize=auto;html=1;rounded=0;endArrow=block;endFill=0;" parent="WIyWlLk6GJQsqaUBKTNV-1" source="qqY5NxQBTnDj3dxJm5_0-45" edge="1">
                    <mxGeometry relative="1" as="geometry">
                        <Array as="points">
                            <mxPoint x="1630" y="551"/>
                            <mxPoint x="1543" y="551"/>
                            <mxPoint x="1543" y="477"/>
                        </Array>
                        <mxPoint x="1543" y="477" as="targetPoint"/>
                    </mxGeometry>
                </mxCell>
                <mxCell id="qqY5NxQBTnDj3dxJm5_0-45" value="Déchet organique" style="swimlane;fontStyle=1;align=center;verticalAlign=top;childLayout=stackLayout;horizontal=1;startSize=26;horizontalStack=0;resizeParent=1;resizeParentMax=0;resizeLast=0;collapsible=1;marginBottom=0;rounded=0;" parent="WIyWlLk6GJQsqaUBKTNV-1" vertex="1">
                    <mxGeometry x="1550" y="580" width="160" height="132" as="geometry"/>
                </mxCell>
                <mxCell id="qqY5NxQBTnDj3dxJm5_0-57" value="nom&lt;br&gt;position" style="text;html=1;align=left;verticalAlign=middle;resizable=0;points=[];autosize=1;strokeColor=none;fillColor=none;rounded=0;" parent="qqY5NxQBTnDj3dxJm5_0-45" vertex="1">
                    <mxGeometry y="26" width="160" height="32" as="geometry"/>
                </mxCell>
                <mxCell id="qqY5NxQBTnDj3dxJm5_0-47" value="" style="line;strokeWidth=1;fillColor=none;align=left;verticalAlign=middle;spacingTop=-1;spacingLeft=3;spacingRight=3;rotatable=0;labelPosition=right;points=[];portConstraint=eastwest;rounded=0;" parent="qqY5NxQBTnDj3dxJm5_0-45" vertex="1">
                    <mxGeometry y="58" width="160" height="74" as="geometry"/>
                </mxCell>
                <mxCell id="qqY5NxQBTnDj3dxJm5_0-58" style="edgeStyle=orthogonalEdgeStyle;orthogonalLoop=1;jettySize=auto;html=1;entryX=0.497;entryY=1.008;entryDx=0;entryDy=0;entryPerimeter=0;rounded=0;endArrow=block;endFill=0;" parent="WIyWlLk6GJQsqaUBKTNV-1" source="qqY5NxQBTnDj3dxJm5_0-50" target="qqY5NxQBTnDj3dxJm5_0-26" edge="1">
                    <mxGeometry relative="1" as="geometry">
                        <Array as="points">
                            <mxPoint x="540" y="813"/>
                        </Array>
                    </mxGeometry>
                </mxCell>
                <mxCell id="qqY5NxQBTnDj3dxJm5_0-50" value="Loup" style="swimlane;fontStyle=1;align=center;verticalAlign=top;childLayout=stackLayout;horizontal=1;startSize=26;horizontalStack=0;resizeParent=1;resizeParentMax=0;resizeLast=0;collapsible=1;marginBottom=0;rounded=0;" parent="WIyWlLk6GJQsqaUBKTNV-1" vertex="1">
                    <mxGeometry x="460" y="846" width="162" height="168" as="geometry">
                        <mxRectangle x="330" y="800" width="60" height="26" as="alternateBounds"/>
                    </mxGeometry>
                </mxCell>
                <mxCell id="qqY5NxQBTnDj3dxJm5_0-51" value="nom&#10;temp_enceinte&#10;temp_digestion&#10;force&#10;vitesse&#10;position&#10;attaque" style="text;strokeColor=none;fillColor=none;align=left;verticalAlign=top;spacingLeft=4;spacingRight=4;overflow=hidden;rotatable=0;points=[[0,0.5],[1,0.5]];portConstraint=eastwest;rounded=0;" parent="qqY5NxQBTnDj3dxJm5_0-50" vertex="1">
                    <mxGeometry y="26" width="162" height="114" as="geometry"/>
                </mxCell>
                <mxCell id="qqY5NxQBTnDj3dxJm5_0-52" value="" style="line;strokeWidth=1;fillColor=none;align=left;verticalAlign=middle;spacingTop=-1;spacingLeft=3;spacingRight=3;rotatable=0;labelPosition=right;points=[];portConstraint=eastwest;rounded=0;" parent="qqY5NxQBTnDj3dxJm5_0-50" vertex="1">
                    <mxGeometry y="140" width="162" height="10" as="geometry"/>
                </mxCell>
                <mxCell id="9" value="draw(position, index_image)" style="text;html=1;align=center;verticalAlign=middle;resizable=0;points=[];autosize=1;strokeColor=none;" vertex="1" parent="qqY5NxQBTnDj3dxJm5_0-50">
                    <mxGeometry y="150" width="162" height="18" as="geometry"/>
                </mxCell>
                <mxCell id="qqY5NxQBTnDj3dxJm5_0-87" style="edgeStyle=orthogonalEdgeStyle;orthogonalLoop=1;jettySize=auto;html=1;entryX=0.5;entryY=1;entryDx=0;entryDy=0;entryPerimeter=0;endArrow=block;endFill=0;" parent="WIyWlLk6GJQsqaUBKTNV-1" source="qqY5NxQBTnDj3dxJm5_0-59" target="qqY5NxQBTnDj3dxJm5_0-31" edge="1">
                    <mxGeometry relative="1" as="geometry"/>
                </mxCell>
                <mxCell id="qqY5NxQBTnDj3dxJm5_0-59" value="Lapin" style="swimlane;fontStyle=1;align=center;verticalAlign=top;childLayout=stackLayout;horizontal=1;startSize=26;horizontalStack=0;resizeParent=1;resizeParentMax=0;resizeLast=0;collapsible=1;marginBottom=0;rounded=0;" parent="WIyWlLk6GJQsqaUBKTNV-1" vertex="1">
                    <mxGeometry x="700" y="846" width="160" height="176" as="geometry"/>
                </mxCell>
                <mxCell id="qqY5NxQBTnDj3dxJm5_0-60" value="nom&#10;temp_enceinte&#10;temp_digestion&#10;force&#10;vitesse&#10;position&#10;attaque" style="text;strokeColor=none;fillColor=none;align=left;verticalAlign=top;spacingLeft=4;spacingRight=4;overflow=hidden;rotatable=0;points=[[0,0.5],[1,0.5]];portConstraint=eastwest;rounded=0;" parent="qqY5NxQBTnDj3dxJm5_0-59" vertex="1">
                    <mxGeometry y="26" width="160" height="114" as="geometry"/>
                </mxCell>
                <mxCell id="qqY5NxQBTnDj3dxJm5_0-61" value="" style="line;strokeWidth=1;fillColor=none;align=left;verticalAlign=middle;spacingTop=-1;spacingLeft=3;spacingRight=3;rotatable=0;labelPosition=right;points=[];portConstraint=eastwest;rounded=0;" parent="qqY5NxQBTnDj3dxJm5_0-59" vertex="1">
                    <mxGeometry y="140" width="160" height="18" as="geometry"/>
                </mxCell>
                <mxCell id="14" value="draw(position, index_image)" style="text;html=1;align=center;verticalAlign=middle;resizable=0;points=[];autosize=1;strokeColor=none;" vertex="1" parent="qqY5NxQBTnDj3dxJm5_0-59">
                    <mxGeometry y="158" width="160" height="18" as="geometry"/>
                </mxCell>
                <mxCell id="qqY5NxQBTnDj3dxJm5_0-89" style="edgeStyle=orthogonalEdgeStyle;orthogonalLoop=1;jettySize=auto;html=1;entryX=0.5;entryY=1;entryDx=0;entryDy=0;entryPerimeter=0;endArrow=block;endFill=0;" parent="WIyWlLk6GJQsqaUBKTNV-1" source="qqY5NxQBTnDj3dxJm5_0-65" target="qqY5NxQBTnDj3dxJm5_0-37" edge="1">
                    <mxGeometry relative="1" as="geometry">
                        <Array as="points">
                            <mxPoint x="1042" y="819"/>
                            <mxPoint x="1042" y="819"/>
                        </Array>
                    </mxGeometry>
                </mxCell>
                <mxCell id="qqY5NxQBTnDj3dxJm5_0-65" value="Rose" style="swimlane;fontStyle=1;align=center;verticalAlign=top;childLayout=stackLayout;horizontal=1;startSize=26;horizontalStack=0;resizeParent=1;resizeParentMax=0;resizeLast=0;collapsible=1;marginBottom=0;rounded=0;" parent="WIyWlLk6GJQsqaUBKTNV-1" vertex="1">
                    <mxGeometry x="962" y="846" width="160" height="176" as="geometry"/>
                </mxCell>
                <mxCell id="qqY5NxQBTnDj3dxJm5_0-66" value="nom&#10;forcce&#10;position" style="text;strokeColor=none;fillColor=none;align=left;verticalAlign=top;spacingLeft=4;spacingRight=4;overflow=hidden;rotatable=0;points=[[0,0.5],[1,0.5]];portConstraint=eastwest;rounded=0;" parent="qqY5NxQBTnDj3dxJm5_0-65" vertex="1">
                    <mxGeometry y="26" width="160" height="114" as="geometry"/>
                </mxCell>
                <mxCell id="qqY5NxQBTnDj3dxJm5_0-67" value="" style="line;strokeWidth=1;fillColor=none;align=left;verticalAlign=middle;spacingTop=-1;spacingLeft=3;spacingRight=3;rotatable=0;labelPosition=right;points=[];portConstraint=eastwest;rounded=0;" parent="qqY5NxQBTnDj3dxJm5_0-65" vertex="1">
                    <mxGeometry y="140" width="160" height="18" as="geometry"/>
                </mxCell>
                <mxCell id="15" value="draw(position, index_image)" style="text;html=1;align=center;verticalAlign=middle;resizable=0;points=[];autosize=1;strokeColor=none;" vertex="1" parent="qqY5NxQBTnDj3dxJm5_0-65">
                    <mxGeometry y="158" width="160" height="18" as="geometry"/>
                </mxCell>
                <mxCell id="qqY5NxQBTnDj3dxJm5_0-74" value="Main" style="swimlane;fontStyle=1;align=center;verticalAlign=top;childLayout=stackLayout;horizontal=1;startSize=26;horizontalStack=0;resizeParent=1;resizeParentMax=0;resizeLast=0;collapsible=1;marginBottom=0;rounded=0;" parent="WIyWlLk6GJQsqaUBKTNV-1" vertex="1">
                    <mxGeometry x="1056" y="198" width="160" height="75" as="geometry"/>
                </mxCell>
                <mxCell id="qqY5NxQBTnDj3dxJm5_0-75" value="FPS&#10;frames" style="text;strokeColor=none;fillColor=none;align=left;verticalAlign=top;spacingLeft=4;spacingRight=4;overflow=hidden;rotatable=0;points=[[0,0.5],[1,0.5]];portConstraint=eastwest;rounded=0;" parent="qqY5NxQBTnDj3dxJm5_0-74" vertex="1">
                    <mxGeometry y="26" width="160" height="41" as="geometry"/>
                </mxCell>
                <mxCell id="qqY5NxQBTnDj3dxJm5_0-76" value="" style="line;strokeWidth=1;fillColor=none;align=left;verticalAlign=middle;spacingTop=-1;spacingLeft=3;spacingRight=3;rotatable=0;labelPosition=right;points=[];portConstraint=eastwest;rounded=0;" parent="qqY5NxQBTnDj3dxJm5_0-74" vertex="1">
                    <mxGeometry y="67" width="160" height="8" as="geometry"/>
                </mxCell>
                <mxCell id="qqY5NxQBTnDj3dxJm5_0-78" value="UI" style="swimlane;fontStyle=1;align=center;verticalAlign=top;childLayout=stackLayout;horizontal=1;startSize=26;horizontalStack=0;resizeParent=1;resizeParentMax=0;resizeLast=0;collapsible=1;marginBottom=0;rounded=0;" parent="WIyWlLk6GJQsqaUBKTNV-1" vertex="1">
                    <mxGeometry x="700" y="165" width="160" height="108" as="geometry"/>
                </mxCell>
                <mxCell id="qqY5NxQBTnDj3dxJm5_0-79" value="Screenwidth&#10;ScreenHeight" style="text;strokeColor=none;fillColor=none;align=left;verticalAlign=top;spacingLeft=4;spacingRight=4;overflow=hidden;rotatable=0;points=[[0,0.5],[1,0.5]];portConstraint=eastwest;rounded=0;" parent="qqY5NxQBTnDj3dxJm5_0-78" vertex="1">
                    <mxGeometry y="26" width="160" height="74" as="geometry"/>
                </mxCell>
                <mxCell id="qqY5NxQBTnDj3dxJm5_0-80" value="" style="line;strokeWidth=1;fillColor=none;align=left;verticalAlign=middle;spacingTop=-1;spacingLeft=3;spacingRight=3;rotatable=0;labelPosition=right;points=[];portConstraint=eastwest;rounded=0;" parent="qqY5NxQBTnDj3dxJm5_0-78" vertex="1">
                    <mxGeometry y="100" width="160" height="8" as="geometry"/>
                </mxCell>
                <mxCell id="qqY5NxQBTnDj3dxJm5_0-83" value="&lt;p style=&quot;margin: 0px ; margin-top: 4px ; text-align: center&quot;&gt;&lt;b&gt;Class Abstraite Edible&lt;/b&gt;&lt;/p&gt;&lt;hr size=&quot;1&quot;&gt;&lt;p style=&quot;margin: 0px ; margin-left: 4px&quot;&gt;+ field: Type&lt;/p&gt;&lt;hr size=&quot;1&quot;&gt;&lt;p style=&quot;margin: 0px ; margin-left: 4px&quot;&gt;+ Manger()&lt;/p&gt;" style="verticalAlign=top;align=left;overflow=fill;fontSize=12;fontFamily=Helvetica;html=1;fillColor=#d5e8d4;strokeColor=#82b366;" parent="WIyWlLk6GJQsqaUBKTNV-1" vertex="1">
                    <mxGeometry x="354" y="325" width="160" height="90" as="geometry"/>
                </mxCell>
                <mxCell id="qqY5NxQBTnDj3dxJm5_0-92" value="A mettre quelque part&amp;nbsp;" style="shape=callout;whiteSpace=wrap;html=1;perimeter=calloutPerimeter;fillColor=#d5e8d4;strokeColor=#82b366;" parent="WIyWlLk6GJQsqaUBKTNV-1" vertex="1">
                    <mxGeometry x="1760" y="415" width="120" height="80" as="geometry"/>
                </mxCell>
                <mxCell id="qqY5NxQBTnDj3dxJm5_0-96" value="Peut etre mettre Decay() dans viande et ajouter un limiteur de déchet organique plus haut" style="shape=callout;whiteSpace=wrap;html=1;perimeter=calloutPerimeter;fillColor=#d5e8d4;strokeColor=#82b366;" parent="WIyWlLk6GJQsqaUBKTNV-1" vertex="1">
                    <mxGeometry x="1190" y="470" width="120" height="110" as="geometry"/>
                </mxCell>
                <mxCell id="qqY5NxQBTnDj3dxJm5_0-98" value="Decay() ca veut dire le temps quil faut avant que ca disparraisse un timer" style="shape=callout;whiteSpace=wrap;html=1;perimeter=calloutPerimeter;fillColor=#d5e8d4;strokeColor=#82b366;" parent="WIyWlLk6GJQsqaUBKTNV-1" vertex="1">
                    <mxGeometry x="1460" y="270" width="120" height="110" as="geometry"/>
                </mxCell>
                <mxCell id="8" style="edgeStyle=orthogonalEdgeStyle;html=1;exitX=0.5;exitY=0;exitDx=0;exitDy=0;entryX=0.001;entryY=0.575;entryDx=0;entryDy=0;entryPerimeter=0;endArrow=block;endFill=0;" edge="1" parent="WIyWlLk6GJQsqaUBKTNV-1" source="5" target="qqY5NxQBTnDj3dxJm5_0-25">
                    <mxGeometry relative="1" as="geometry">
                        <mxPoint x="300" y="745" as="targetPoint"/>
                    </mxGeometry>
                </mxCell>
                <mxCell id="5" value="chat" style="swimlane;fontStyle=1;align=center;verticalAlign=top;childLayout=stackLayout;horizontal=1;startSize=26;horizontalStack=0;resizeParent=1;resizeParentMax=0;resizeLast=0;collapsible=1;marginBottom=0;rounded=0;" vertex="1" parent="WIyWlLk6GJQsqaUBKTNV-1">
                    <mxGeometry x="197" y="849" width="160" height="170" as="geometry">
                        <mxRectangle x="330" y="800" width="60" height="26" as="alternateBounds"/>
                    </mxGeometry>
                </mxCell>
                <mxCell id="6" value="nom&#10;temp_enceinte&#10;temp_digestion&#10;force&#10;vitesse&#10;position&#10;attaque" style="text;strokeColor=none;fillColor=none;align=left;verticalAlign=top;spacingLeft=4;spacingRight=4;overflow=hidden;rotatable=0;points=[[0,0.5],[1,0.5]];portConstraint=eastwest;rounded=0;" vertex="1" parent="5">
                    <mxGeometry y="26" width="160" height="114" as="geometry"/>
                </mxCell>
                <mxCell id="7" value="" style="line;strokeWidth=1;fillColor=none;align=left;verticalAlign=middle;spacingTop=-1;spacingLeft=3;spacingRight=3;rotatable=0;labelPosition=right;points=[];portConstraint=eastwest;rounded=0;" vertex="1" parent="5">
                    <mxGeometry y="140" width="160" height="12" as="geometry"/>
                </mxCell>
                <mxCell id="10" value="draw(position, index_image)" style="text;html=1;align=center;verticalAlign=middle;resizable=0;points=[];autosize=1;strokeColor=none;" vertex="1" parent="5">
                    <mxGeometry y="152" width="160" height="18" as="geometry"/>
                </mxCell>
                <mxCell id="16" value="draw(position, index_image)" style="text;html=1;align=center;verticalAlign=middle;resizable=0;points=[];autosize=1;strokeColor=none;" vertex="1" parent="WIyWlLk6GJQsqaUBKTNV-1">
                    <mxGeometry x="1220" y="693" width="160" height="18" as="geometry"/>
                </mxCell>
                <mxCell id="17" value="draw(position, index_image)" style="text;html=1;align=center;verticalAlign=middle;resizable=0;points=[];autosize=1;strokeColor=none;" vertex="1" parent="WIyWlLk6GJQsqaUBKTNV-1">
                    <mxGeometry x="1553" y="675" width="160" height="18" as="geometry"/>
                </mxCell>
                <mxCell id="18" style="edgeStyle=orthogonalEdgeStyle;html=1;endArrow=open;endFill=0;entryX=-0.004;entryY=0.109;entryDx=0;entryDy=0;entryPerimeter=0;" edge="1" parent="WIyWlLk6GJQsqaUBKTNV-1" source="qqY5NxQBTnDj3dxJm5_0-79" target="qqY5NxQBTnDj3dxJm5_0-75">
                    <mxGeometry relative="1" as="geometry">
                        <mxPoint x="1050" y="228" as="targetPoint"/>
                    </mxGeometry>
                </mxCell>
            </root>
        </mxGraphModel>
    </diagram>
</mxfile>